<svg width="284" height="959" viewBox="0 0 284 959" fill="none" xmlns="http://www.w3.org/2000/svg">
<path d="M-26 443.826V485.324C-26 486.996 -25.1645 488.557 -23.7735 489.484L17.7265 517.151C19.406 518.271 21.594 518.271 23.2735 517.151L64.7735 489.484C66.1645 488.557 67 486.996 67 485.324V443.826C67 442.072 66.0814 440.447 64.5792 439.542L23.0793 414.553C21.4925 413.598 19.5075 413.598 17.9208 414.553L-23.5792 439.542C-25.0814 440.447 -26 442.072 -26 443.826Z" stroke="white" stroke-width="2"/>
<path d="M-26 619.826V661.324C-26 662.996 -25.1645 664.557 -23.7735 665.484L17.7265 693.151C19.406 694.271 21.594 694.271 23.2735 693.151L64.7735 665.484C66.1645 664.557 67 662.996 67 661.324V619.826C67 618.072 66.0814 616.447 64.5792 615.542L23.0793 590.553C21.4925 589.598 19.5075 589.598 17.9208 590.553L-23.5792 615.542C-25.0814 616.447 -26 618.072 -26 619.826Z" stroke="white" stroke-width="2"/>
<path d="M-26 795.826V837.324C-26 838.996 -25.1645 840.557 -23.7735 841.484L17.7265 869.151C19.406 870.271 21.594 870.271 23.2735 869.151L64.7735 841.484C66.1645 840.557 67 838.996 67 837.324V795.826C67 794.072 66.0814 792.447 64.5792 791.542L23.0793 766.553C21.4925 765.598 19.5075 765.598 17.9208 766.553L-23.5792 791.542C-25.0814 792.447 -26 794.072 -26 795.826Z" stroke="white" stroke-width="2"/>
<path d="M-80 531.826V573.324C-80 574.996 -79.1645 576.557 -77.7735 577.484L-36.2735 605.151C-34.594 606.271 -32.406 606.271 -30.7265 605.151L10.7735 577.484C12.1645 576.557 13 574.996 13 573.324V531.826C13 530.072 12.0814 528.447 10.5792 527.542L-30.9207 502.553C-32.5075 501.598 -34.4925 501.598 -36.0792 502.553L-77.5792 527.542C-79.0814 528.447 -80 530.072 -80 531.826Z" stroke="white" stroke-width="2"/>
<path d="M-80 707.826V749.324C-80 750.996 -79.1645 752.557 -77.7735 753.484L-36.2735 781.151C-34.594 782.271 -32.406 782.271 -30.7265 781.151L10.7735 753.484C12.1645 752.557 13 750.996 13 749.324V707.826C13 706.072 12.0814 704.447 10.5792 703.542L-30.9207 678.553C-32.5075 677.598 -34.4925 677.598 -36.0792 678.553L-77.5792 703.542C-79.0814 704.447 -80 706.072 -80 707.826Z" stroke="white" stroke-width="2"/>
<path d="M-80 883.826V925.324C-80 926.996 -79.1645 928.557 -77.7735 929.484L-36.2735 957.151C-34.594 958.271 -32.406 958.271 -30.7265 957.151L10.7735 929.484C12.1645 928.557 13 926.996 13 925.324V883.826C13 882.072 12.0814 880.447 10.5792 879.542L-30.9207 854.553C-32.5075 853.598 -34.4925 853.598 -36.0792 854.553L-77.5792 879.542C-79.0814 880.447 -80 882.072 -80 883.826Z" stroke="white" stroke-width="2"/>
<path d="M82 443.826V485.324C82 486.996 82.8355 488.557 84.2265 489.484L125.726 517.151C127.406 518.271 129.594 518.271 131.274 517.151L172.773 489.484C174.164 488.557 175 486.996 175 485.324V443.826C175 442.072 174.081 440.447 172.579 439.542L131.079 414.553C129.492 413.598 127.508 413.598 125.921 414.553L84.4208 439.542C82.9186 440.447 82 442.072 82 443.826Z" stroke="white" stroke-width="2"/>
<path d="M82 619.826V661.324C82 662.996 82.8355 664.557 84.2265 665.484L125.726 693.151C127.406 694.271 129.594 694.271 131.274 693.151L172.773 665.484C174.164 664.557 175 662.996 175 661.324V619.826C175 618.072 174.081 616.447 172.579 615.542L131.079 590.553C129.492 589.598 127.508 589.598 125.921 590.553L84.4208 615.542C82.9186 616.447 82 618.072 82 619.826Z" stroke="white" stroke-width="2"/>
<path d="M82 795.826V837.324C82 838.996 82.8355 840.557 84.2265 841.484L125.726 869.151C127.406 870.271 129.594 870.271 131.274 869.151L172.773 841.484C174.164 840.557 175 838.996 175 837.324V795.826C175 794.072 174.081 792.447 172.579 791.542L131.079 766.553C129.492 765.598 127.508 765.598 125.921 766.553L84.4208 791.542C82.9186 792.447 82 794.072 82 795.826Z" stroke="white" stroke-width="2"/>
<path d="M28 531.826V573.324C28 574.996 28.8355 576.557 30.2265 577.484L71.7265 605.151C73.406 606.271 75.594 606.271 77.2735 605.151L118.773 577.484C120.164 576.557 121 574.996 121 573.324V531.826C121 530.072 120.081 528.447 118.579 527.542L77.0793 502.553C75.4925 501.598 73.5075 501.598 71.9208 502.553L30.4208 527.542C28.9186 528.447 28 530.072 28 531.826Z" stroke="white" stroke-width="2"/>
<path d="M28 707.826V749.324C28 750.996 28.8355 752.557 30.2265 753.484L71.7265 781.151C73.406 782.271 75.594 782.271 77.2735 781.151L118.773 753.484C120.164 752.557 121 750.996 121 749.324V707.826C121 706.072 120.081 704.447 118.579 703.542L77.0793 678.553C75.4925 677.598 73.5075 677.598 71.9208 678.553L30.4208 703.542C28.9186 704.447 28 706.072 28 707.826Z" stroke="white" stroke-width="2"/>
<path d="M28 883.826V925.324C28 926.996 28.8355 928.557 30.2265 929.484L71.7265 957.151C73.406 958.271 75.594 958.271 77.2735 957.151L118.773 929.484C120.164 928.557 121 926.996 121 925.324V883.826C121 882.072 120.081 880.447 118.579 879.542L77.0793 854.553C75.4925 853.598 73.5075 853.598 71.9208 854.553L30.4208 879.542C28.9186 880.447 28 882.072 28 883.826Z" stroke="white" stroke-width="2"/>
<path d="M190 443.826V485.324C190 486.996 190.836 488.557 192.227 489.484L233.726 517.151C235.406 518.271 237.594 518.271 239.274 517.151L280.773 489.484C282.164 488.557 283 486.996 283 485.324V443.826C283 442.072 282.081 440.447 280.579 439.542L239.079 414.553C237.492 413.598 235.508 413.598 233.921 414.553L192.421 439.542C190.919 440.447 190 442.072 190 443.826Z" stroke="white" stroke-width="2"/>
<path d="M136 531.826V573.324C136 574.996 136.836 576.557 138.227 577.484L179.726 605.151C181.406 606.271 183.594 606.271 185.274 605.151L226.773 577.484C228.164 576.557 229 574.996 229 573.324V531.826C229 530.072 228.081 528.447 226.579 527.542L185.079 502.553C183.492 501.598 181.508 501.598 179.921 502.553L138.421 527.542C136.919 528.447 136 530.072 136 531.826Z" stroke="white" stroke-width="2"/>
<path d="M-26 92.8257V134.324C-26 135.996 -25.1645 137.557 -23.7735 138.484L17.7265 166.151C19.406 167.271 21.594 167.271 23.2735 166.151L64.7735 138.484C66.1645 137.557 67 135.996 67 134.324V92.8257C67 91.0722 66.0814 89.4469 64.5792 88.5423L23.0793 63.5531C21.4925 62.5976 19.5075 62.5976 17.9208 63.5531L-23.5792 88.5423C-25.0814 89.4469 -26 91.0722 -26 92.8257Z" stroke="white" stroke-width="2"/>
<path d="M-26 267.826V309.324C-26 310.996 -25.1645 312.557 -23.7735 313.484L17.7265 341.151C19.406 342.271 21.594 342.271 23.2735 341.151L64.7735 313.484C66.1645 312.557 67 310.996 67 309.324V267.826C67 266.072 66.0814 264.447 64.5792 263.542L23.0793 238.553C21.4925 237.598 19.5075 237.598 17.9208 238.553L-23.5792 263.542C-25.0814 264.447 -26 266.072 -26 267.826Z" stroke="white" stroke-width="2"/>
<path d="M-80 180.826V222.324C-80 223.996 -79.1645 225.557 -77.7735 226.484L-36.2735 254.151C-34.594 255.271 -32.406 255.271 -30.7265 254.151L10.7735 226.484C12.1645 225.557 13 223.996 13 222.324V180.826C13 179.072 12.0814 177.447 10.5792 176.542L-30.9207 151.553C-32.5075 150.598 -34.4925 150.598 -36.0792 151.553L-77.5792 176.542C-79.0814 177.447 -80 179.072 -80 180.826Z" stroke="white" stroke-width="2"/>
<path d="M-80 355.826V397.324C-80 398.996 -79.1645 400.557 -77.7735 401.484L-36.2735 429.151C-34.594 430.271 -32.406 430.271 -30.7265 429.151L10.7735 401.484C12.1645 400.557 13 398.996 13 397.324V355.826C13 354.072 12.0814 352.447 10.5792 351.542L-30.9207 326.553C-32.5075 325.598 -34.4925 325.598 -36.0792 326.553L-77.5792 351.542C-79.0814 352.447 -80 354.072 -80 355.826Z" stroke="white" stroke-width="2"/>
<path d="M-80 5.82574V47.3241C-80 48.9958 -79.1645 50.557 -77.7735 51.4843L-36.2735 79.151C-34.594 80.2707 -32.406 80.2707 -30.7265 79.151L10.7735 51.4843C12.1645 50.557 13 48.9958 13 47.3241V5.82574C13 4.07224 12.0814 2.44689 10.5792 1.54234L-30.9207 -23.4469C-32.5075 -24.4024 -34.4925 -24.4024 -36.0792 -23.4469L-77.5792 1.54234C-79.0814 2.44689 -80 4.07224 -80 5.82574Z" stroke="white" stroke-width="2"/>
<path d="M82 92.8257V134.324C82 135.996 82.8355 137.557 84.2265 138.484L125.726 166.151C127.406 167.271 129.594 167.271 131.274 166.151L172.773 138.484C174.164 137.557 175 135.996 175 134.324V92.8257C175 91.0722 174.081 89.4469 172.579 88.5423L131.079 63.5531C129.492 62.5976 127.508 62.5976 125.921 63.5531L84.4208 88.5423C82.9186 89.4469 82 91.0722 82 92.8257Z" stroke="white" stroke-width="2"/>
<path d="M82 267.826V309.324C82 310.996 82.8355 312.557 84.2265 313.484L125.726 341.151C127.406 342.271 129.594 342.271 131.274 341.151L172.773 313.484C174.164 312.557 175 310.996 175 309.324V267.826C175 266.072 174.081 264.447 172.579 263.542L131.079 238.553C129.492 237.598 127.508 237.598 125.921 238.553L84.4208 263.542C82.9186 264.447 82 266.072 82 267.826Z" stroke="white" stroke-width="2"/>
<path d="M28 180.826V222.324C28 223.996 28.8355 225.557 30.2265 226.484L71.7265 254.151C73.406 255.271 75.594 255.271 77.2735 254.151L118.773 226.484C120.164 225.557 121 223.996 121 222.324V180.826C121 179.072 120.081 177.447 118.579 176.542L77.0793 151.553C75.4925 150.598 73.5075 150.598 71.9208 151.553L30.4208 176.542C28.9186 177.447 28 179.072 28 180.826Z" stroke="white" stroke-width="2"/>
<path d="M28 355.826V397.324C28 398.996 28.8355 400.557 30.2265 401.484L71.7265 429.151C73.406 430.271 75.594 430.271 77.2735 429.151L118.773 401.484C120.164 400.557 121 398.996 121 397.324V355.826C121 354.072 120.081 352.447 118.579 351.542L77.0793 326.553C75.4925 325.598 73.5075 325.598 71.9208 326.553L30.4208 351.542C28.9186 352.447 28 354.072 28 355.826Z" stroke="white" stroke-width="2"/>
<path d="M28 5.82574V47.3241C28 48.9958 28.8355 50.557 30.2265 51.4843L71.7265 79.151C73.406 80.2707 75.594 80.2707 77.2735 79.151L118.773 51.4843C120.164 50.557 121 48.9958 121 47.3241V5.82574C121 4.07224 120.081 2.44689 118.579 1.54234L77.0793 -23.4469C75.4925 -24.4024 73.5075 -24.4024 71.9208 -23.4469L30.4208 1.54234C28.9186 2.44689 28 4.07224 28 5.82574Z" stroke="white" stroke-width="2"/>
<path d="M190 92.8257V134.324C190 135.996 190.836 137.557 192.227 138.484L233.726 166.151C235.406 167.271 237.594 167.271 239.274 166.151L280.773 138.484C282.164 137.557 283 135.996 283 134.324V92.8257C283 91.0722 282.081 89.4469 280.579 88.5423L239.079 63.5531C237.492 62.5976 235.508 62.5976 233.921 63.5531L192.421 88.5423C190.919 89.4469 190 91.0722 190 92.8257Z" stroke="white" stroke-width="2"/>
<path d="M190 267.826V309.324C190 310.996 190.836 312.557 192.227 313.484L233.726 341.151C235.406 342.271 237.594 342.271 239.274 341.151L280.773 313.484C282.164 312.557 283 310.996 283 309.324V267.826C283 266.072 282.081 264.447 280.579 263.542L239.079 238.553C237.492 237.598 235.508 237.598 233.921 238.553L192.421 263.542C190.919 264.447 190 266.072 190 267.826Z" stroke="white" stroke-width="2"/>
<path d="M136 180.826V222.324C136 223.996 136.836 225.557 138.227 226.484L179.726 254.151C181.406 255.271 183.594 255.271 185.274 254.151L226.773 226.484C228.164 225.557 229 223.996 229 222.324V180.826C229 179.072 228.081 177.447 226.579 176.542L185.079 151.553C183.492 150.598 181.508 150.598 179.921 151.553L138.421 176.542C136.919 177.447 136 179.072 136 180.826Z" stroke="white" stroke-width="2"/>
<path d="M136 355.826V397.324C136 398.996 136.836 400.557 138.227 401.484L179.726 429.151C181.406 430.271 183.594 430.271 185.274 429.151L226.773 401.484C228.164 400.557 229 398.996 229 397.324V355.826C229 354.072 228.081 352.447 226.579 351.542L185.079 326.553C183.492 325.598 181.508 325.598 179.921 326.553L138.421 351.542C136.919 352.447 136 354.072 136 355.826Z" stroke="white" stroke-width="2"/>
<path d="M136 5.82574V47.3241C136 48.9958 136.836 50.557 138.227 51.4843L179.726 79.151C181.406 80.2707 183.594 80.2707 185.274 79.151L226.773 51.4843C228.164 50.557 229 48.9958 229 47.3241V5.82574C229 4.07224 228.081 2.44689 226.579 1.54234L185.079 -23.4469C183.492 -24.4024 181.508 -24.4024 179.921 -23.4469L138.421 1.54234C136.919 2.44689 136 4.07224 136 5.82574Z" stroke="white" stroke-width="2"/>
</svg>
