<svg width="174" height="40" viewBox="0 0 174 40" fill="none" xmlns="http://www.w3.org/2000/svg">
<path d="M2.53346 10.8696C2.64126 10.3804 2.85688 10.4348 3.07249 10.4348C5.87546 10.4348 8.73234 10.4348 11.5353 10.4348C11.8048 10.4348 12.2361 10.2718 12.2361 10.7609C12.2361 11.1413 11.8587 11.0326 11.5892 11.087C10.4033 11.1957 9.91821 11.9022 9.91821 13.0978C9.91821 15.6522 9.86431 18.1522 9.86431 20.7065C9.86431 21.25 10.026 21.4674 10.5651 21.4131C10.619 21.4131 10.6729 21.4131 10.6729 21.4131C13.0985 21.5761 13.0985 21.5761 13.5297 18.9674C14.9851 10.8696 22.6933 8.04349 29 11.1413C31.4257 12.337 32.9349 14.4022 33.6357 16.9565C34.9294 21.6848 34.6059 26.1957 31.3178 30.1087C27.2212 35 17.9498 34.6196 14.6617 28.3152C13.7993 26.6848 13.3141 24.9457 13.3141 23.1522C13.3141 22.2283 13.0446 21.9565 12.1283 21.9565C9.86431 22.0109 9.86431 21.9565 9.86431 24.2391C9.86431 25.9783 9.86431 27.7718 9.86431 29.5109C9.86431 30.8696 9.97212 32.1739 11.8048 32.2826C12.0743 32.2826 12.2361 32.3913 12.2361 32.6631C12.1822 32.9891 11.9126 32.9348 11.697 32.9348C8.78624 32.9348 5.87546 32.9348 2.96468 32.9348C2.74907 32.9348 2.47955 32.9348 2.47955 32.6087C2.47955 32.337 2.74907 32.2283 2.96468 32.2283C4.8513 32.2283 4.8513 30.9239 4.8513 29.6196C4.8513 24.837 4.8513 20.1087 4.8513 15.3804C4.8513 14.3478 4.7974 13.3152 4.74349 12.2826C4.63569 10.8696 3.1803 11.3587 2.53346 10.8696ZM18.5967 21.4674C18.7045 24.6196 18.9201 27.6087 20.3755 30.2718C21.8309 32.9891 24.5799 33.6957 26.4126 31.7391C27.0056 31.1413 27.4368 30.3804 27.7602 29.5652C29.2156 25.9783 29.2695 22.2283 28.8922 18.4783C28.6766 16.4131 28.1915 14.2935 26.9517 12.5C25.0651 9.83697 22.4238 9.78262 20.645 12.5C18.8123 15.2718 18.7584 18.4783 18.5967 21.4674Z" fill="white"/>
<path d="M158.799 10.9239C155.781 10.9783 156.428 13.1522 156.374 15C156.374 16.7935 156.374 18.6413 156.374 20.4348C156.374 21.1413 156.535 21.3587 157.236 21.3587C159.5 21.3043 161.71 21.3043 163.974 21.3587C164.675 21.3587 164.783 21.1413 164.783 20.4891C164.729 18.0435 164.729 15.5978 164.729 13.1522C164.729 11.9565 164.244 11.1957 162.95 11.0326C162.734 11.0326 162.357 11.087 162.357 10.7065C162.357 10.3261 162.734 10.4348 163.004 10.4348C165.807 10.4348 168.664 10.4348 171.467 10.4348C171.736 10.4348 172.059 10.3804 172.113 10.7609C172.113 11.1413 171.736 11.087 171.52 11.087C170.119 11.25 169.849 12.1196 169.849 13.3696C169.903 18.9674 169.849 24.5652 169.849 30.2174C169.849 31.413 170.173 32.2826 171.52 32.337C171.79 32.337 172.167 32.3913 172.113 32.7174C172.113 33.2065 171.628 33.0435 171.359 33.0435C168.556 33.0435 165.807 33.0435 163.004 33.0435C162.788 33.0435 162.411 33.2065 162.357 32.8261C162.303 32.337 162.734 32.3913 163.004 32.337C164.351 32.2283 164.729 31.413 164.675 30.2174C164.675 27.7717 164.675 25.3261 164.729 22.8804C164.729 22.2283 164.621 21.9022 163.866 21.9565C161.602 22.0109 159.392 22.0109 157.128 21.9565C156.428 21.9565 156.32 22.2283 156.32 22.8261C156.32 25.3804 156.32 27.8804 156.32 30.4348C156.32 31.5217 156.751 32.2826 157.937 32.3913C158.206 32.3913 158.691 32.3913 158.584 32.8261C158.53 33.2609 158.045 33.0435 157.775 33.0435C155.026 33.0435 152.277 33.0435 149.582 33.0435C149.312 33.0435 148.881 33.2609 148.827 32.7717C148.827 32.3913 149.204 32.3913 149.42 32.3913C150.929 32.337 151.199 31.3043 151.199 30.0543C151.199 24.5652 151.199 19.1304 151.199 13.6413C151.199 12.2283 150.822 11.25 149.258 11.1413C149.043 11.1413 148.773 11.1413 148.827 10.8152C148.827 10.5978 149.043 10.5435 149.204 10.5435C152.277 10.5435 155.403 10.5978 158.476 10.6522C158.584 10.4891 158.638 10.6522 158.799 10.9239Z" fill="white"/>
<path d="M146.725 21.1957C146.671 27.4457 143.599 31.6848 138.37 33.0435C132.872 34.4565 127.428 32.2283 125.271 27.2283C122.846 21.5761 124.247 12.8261 131.848 10.4348C136.429 8.9674 142.413 10.163 145.162 15C146.348 17.0652 146.671 19.2935 146.725 21.1957ZM141.388 20.9239C141.388 18.587 141.011 15.4891 139.125 12.7717C136.914 9.67392 133.411 9.78261 131.47 13.0978C129.638 16.1957 129.476 19.6196 129.584 23.0435C129.691 25.7065 130.177 28.3152 131.794 30.5978C133.95 33.6957 137.454 33.587 139.448 30.3804C141.065 27.7174 141.335 24.7826 141.388 20.9239Z" fill="white"/>
<path d="M70.3439 10.4348C72.7695 10.4348 75.1952 10.4348 77.6208 10.4348C78.3755 10.4348 78.6989 10.4892 78.645 11.4131C78.4833 13.0979 78.5372 14.837 78.5372 16.5761C78.5372 16.8479 78.7528 17.2283 78.2138 17.2826C77.7825 17.337 77.7825 16.9566 77.7286 16.6305C77.4591 15.5979 77.1896 14.5653 76.7045 13.587C75.6803 11.5218 72.2844 10.3261 70.29 11.3044C69.8048 11.5761 69.6431 12.0653 69.5892 12.5544C69.5892 14.6196 69.5892 16.7392 69.5353 18.8044C69.5353 19.5653 69.9665 19.5653 70.5056 19.5653C71.961 19.5653 73.4703 19.6196 74.9256 19.8913C78.5372 20.6522 80.6933 23.0979 80.5855 26.5218C80.5316 29.674 78.052 32.1196 74.5483 32.7174C72.0149 33.0979 69.5353 32.8805 67.0019 32.9348C65.9777 32.9348 64.9535 32.9892 63.9294 32.9348C63.3364 32.8805 62.3662 33.3153 62.2584 32.7718C62.0967 32.0109 63.1208 32.337 63.6059 32.1196C64.145 31.9022 64.3067 31.4674 64.3606 30.924C64.4145 30.1087 64.4684 29.2935 64.4684 28.4783C64.4684 23.6957 64.4684 18.8587 64.4684 14.0761C64.4684 12.6087 64.5762 11.0326 62.4201 10.9783C62.2045 10.9783 62.0966 10.8696 62.0966 10.6522C62.1506 10.3261 62.4201 10.3805 62.5818 10.3805C63.6598 10.3805 64.7379 10.4348 65.816 10.4348C67.3792 10.4348 68.8346 10.4348 70.3439 10.4348ZM69.5353 25.5435C69.5353 26.9566 69.5353 28.3153 69.5353 29.7283C69.5892 32.2283 71.1524 33.1522 73.3085 31.9022C74.2788 31.3587 74.7639 30.4892 74.9796 29.4022C75.3569 27.6087 75.4108 25.8153 75.0874 24.0218C74.5483 21.1413 73.3086 20.1087 70.3978 20.1087C69.697 20.1087 69.4275 20.2718 69.4814 21.0326C69.5892 22.5544 69.5353 24.0218 69.5353 25.5435Z" fill="white"/>
<path d="M82.5799 10.6522C83.0112 10.2718 83.5502 10.3805 83.9814 10.3805C88.8866 10.3805 93.7379 10.3805 98.6431 10.3805C99.3978 10.3805 99.6673 10.5435 99.6134 11.3587C99.4517 13.0979 99.3439 14.8913 99.5056 16.6305C99.5056 16.9022 99.6673 17.1739 99.2361 17.2826C98.7509 17.3913 98.8048 16.9565 98.697 16.6848C98.4275 15.7609 98.3197 14.7283 97.8885 13.8587C97.026 12.0652 95.6784 11.25 93.7379 11.1957C90.1264 11.087 90.1264 11.1413 90.0725 14.6739C90.0725 16.5761 90.1264 18.4783 90.0725 20.3805C90.0186 21.3044 90.342 21.4674 91.1506 21.3587C92.3364 21.25 93.3067 20.8152 93.8457 19.6739C94.1692 18.9674 94.5465 18.3152 94.7082 17.5544C94.7621 17.2826 94.9238 17.1739 95.1933 17.1739C95.4628 17.1739 95.5706 17.3913 95.5167 17.6631C95.4628 20.3805 95.4089 23.0979 95.6245 25.8152C95.6245 25.9783 95.5706 26.1957 95.355 26.1957C95.0855 26.25 94.9238 26.087 94.8699 25.8696C94.7621 25.5435 94.7621 25.2718 94.6543 24.9457C94.1152 22.9892 92.8755 22.0109 90.8271 21.9565C90.2881 21.9565 90.0186 22.0652 90.0186 22.6631C90.0725 25.3261 90.0725 27.9892 90.0725 30.6522C90.0725 31.7935 90.6654 32.2826 91.7435 32.2283C92.013 32.2283 92.2825 32.2283 92.552 32.2283C96.2175 32.5 97.9963 31.1957 99.0204 27.1196C99.1822 26.5761 98.9126 25.4892 99.6673 25.5979C100.422 25.7065 99.9368 26.6848 99.9907 27.337C100.045 28.9131 100.045 30.4892 100.152 32.0652C100.206 32.8261 100.099 33.0979 99.29 33.0979C94.0613 33.0435 88.8866 33.0979 83.658 33.0435C83.2807 33.0435 82.6877 33.2609 82.6338 32.7718C82.5799 32.2283 83.2268 32.337 83.5502 32.2826C84.5204 32.1196 84.8978 31.4674 84.9517 30.5435C84.9517 24.6196 84.9517 18.6957 84.9517 12.7718C84.9517 11.8479 84.4665 11.3587 83.6041 11.1413C83.3346 11.0326 82.8494 11.1413 82.5799 10.6522Z" fill="white"/>
<path d="M106.297 32.7173C106.621 32.2282 107.16 32.3369 107.591 32.2826C109.262 32.0108 109.693 31.6304 109.747 29.9456C109.801 27.663 109.747 25.4347 109.747 23.1521C109.747 19.5108 109.747 15.8152 109.747 12.1739C109.747 11.3586 109.586 11.0869 108.669 11.1956C106.243 11.4673 104.788 12.826 103.926 15.8152C103.764 16.4673 103.602 17.1195 103.441 17.7717C103.387 17.9891 103.333 18.2608 103.063 18.2608C102.686 18.2608 102.632 17.9891 102.686 17.7173C102.848 15.4891 102.578 13.3152 102.524 11.0869C102.47 10.1086 103.225 10.4891 103.656 10.4891C108.615 10.4891 113.628 10.4891 118.587 10.5434C119.504 10.5434 120.366 10.5434 121.283 10.4891C121.822 10.4891 122.037 10.6521 121.983 11.2499C121.875 13.3695 121.875 15.4891 121.875 17.6086C121.875 17.8804 122.037 18.2065 121.66 18.3152C121.229 18.4239 121.121 18.0978 121.067 17.7717C120.743 16.3586 120.42 14.9999 119.665 13.6956C118.803 12.1195 117.401 11.3043 115.623 11.1956C115.03 11.1413 114.706 11.3586 114.706 12.0108C114.76 18.0978 114.76 24.2391 114.814 30.326C114.814 31.8478 115.784 32.2826 117.132 32.3913C117.455 32.3913 118.156 32.2282 118.102 32.826C118.048 33.3695 117.455 33.0978 117.078 33.0978C113.844 33.0978 110.61 33.0978 107.375 33.0978C107.052 32.9891 106.621 33.1521 106.297 32.7173Z" fill="white"/>
<path d="M44.039 21.8478C44.039 24.6196 44.0929 27.3913 44.039 30.1087C44.039 31.5217 44.632 32.2283 45.9796 32.2826C46.303 32.2826 46.842 32.1196 46.7342 32.7174C46.6803 33.1522 46.1952 32.9348 45.9256 32.9348C43.1227 32.9348 40.2658 32.9348 37.4628 32.9348C37.1394 32.9348 36.6543 33.2065 36.6004 32.6631C36.5465 32.2283 37.0316 32.2826 37.3011 32.2283C38.5409 32.1196 38.9182 31.3044 38.9182 30.1631C38.9182 24.4565 38.9182 18.75 38.9182 13.0435C38.9182 11.9022 38.487 11.1413 37.2472 10.9783C36.9777 10.9239 36.4926 11.1413 36.5465 10.5978C36.6004 10.1087 37.0316 10.3261 37.3011 10.3261C42.2602 10.3261 47.2732 10.3261 52.2323 10.3261C52.7175 10.3261 52.9331 10.4348 52.9331 10.9783C52.8253 12.9891 52.6636 14.9457 52.8253 16.9565C52.8253 17.2826 52.7714 17.5 52.448 17.5544C52.0706 17.5544 52.0706 17.2283 52.0167 17.0109C51.7472 15.8696 51.4238 14.6739 50.8848 13.587C49.8067 11.5217 46.842 10.3804 44.7398 11.3044C44.0929 11.5761 44.039 12.0652 44.039 12.6631C44.039 15.7065 44.039 18.8044 44.039 21.8478Z" fill="white"/>
</svg>
