<svg width="18" height="23" viewBox="0 0 18 23" fill="none" xmlns="http://www.w3.org/2000/svg">
<path d="M9 5.25C8.22742 5.25 7.47218 5.4791 6.8298 5.90832C6.18742 6.33755 5.68675 6.94762 5.3911 7.66139C5.09544 8.37517 5.01808 9.16058 5.16881 9.91832C5.31953 10.6761 5.69157 11.3721 6.23786 11.9184C6.78416 12.4647 7.48019 12.8367 8.23793 12.9874C8.99567 13.1382 9.78108 13.0608 10.4949 12.7652C11.2086 12.4695 11.8187 11.9688 12.2479 11.3264C12.6772 10.6841 12.9062 9.92883 12.9062 9.15625C12.9062 8.12025 12.4947 7.12668 11.7621 6.39411C11.0296 5.66155 10.036 5.25 9 5.25ZM9 11.5C8.53645 11.5 8.08331 11.3625 7.69788 11.105C7.31245 10.8475 7.01205 10.4814 6.83466 10.0532C6.65726 9.6249 6.61085 9.15365 6.70128 8.69901C6.79172 8.24436 7.01494 7.82675 7.34272 7.49897C7.6705 7.17119 8.08811 6.94797 8.54276 6.85753C8.9974 6.7671 9.46865 6.81351 9.89691 6.99091C10.3252 7.1683 10.6912 7.4687 10.9488 7.85413C11.2063 8.23956 11.3438 8.6927 11.3438 9.15625C11.3438 9.77785 11.0968 10.374 10.6573 10.8135C10.2177 11.2531 9.6216 11.5 9 11.5ZM9 0.5625C6.72159 0.565085 4.53724 1.47133 2.92616 3.08241C1.31507 4.69349 0.408835 6.87784 0.40625 9.15625C0.40625 12.2227 1.82324 15.4727 4.50781 18.5557C5.71408 19.9488 7.07173 21.2033 8.55566 22.2959C8.68702 22.3879 8.84352 22.4373 9.00391 22.4373C9.16429 22.4373 9.32079 22.3879 9.45215 22.2959C10.9333 21.2028 12.2884 19.9484 13.4922 18.5557C16.1729 15.4727 17.5938 12.2227 17.5938 9.15625C17.5912 6.87784 16.6849 4.69349 15.0738 3.08241C13.4628 1.47133 11.2784 0.565085 9 0.5625ZM9 20.6797C7.38574 19.4102 1.96875 14.7471 1.96875 9.15625C1.96875 7.29145 2.70954 5.50302 4.02816 4.18441C5.34677 2.86579 7.1352 2.125 9 2.125C10.8648 2.125 12.6532 2.86579 13.9718 4.18441C15.2905 5.50302 16.0312 7.29145 16.0312 9.15625C16.0312 14.7451 10.6143 19.4102 9 20.6797Z" fill="white"/>
</svg>
