<svg width="26" height="25" viewBox="0 0 26 25" fill="none" xmlns="http://www.w3.org/2000/svg">
<path d="M5.68748 4.16675H19.75C20.6147 4.16669 21.4467 4.49753 22.0752 5.09141C22.7038 5.68528 23.0812 6.49716 23.1302 7.3605L23.1354 7.55216V17.448C23.1355 18.3127 22.8046 19.1447 22.2107 19.7732C21.6169 20.4018 20.805 20.7792 19.9416 20.8282L19.75 20.8334H5.68748C4.82275 20.8335 3.99078 20.5026 3.36224 19.9088C2.7337 19.3149 2.35623 18.503 2.30727 17.6397L2.30206 17.448V7.55216C2.30201 6.68744 2.63285 5.85547 3.22672 5.22692C3.82059 4.59838 4.63247 4.22091 5.49581 4.17196L5.68748 4.16675ZM21.5729 9.76362L13.0833 14.2324C12.9875 14.283 12.8821 14.3131 12.774 14.3209C12.6658 14.3286 12.5573 14.3137 12.4552 14.2772L12.3552 14.2334L3.86456 9.76466V17.448C3.86458 17.9055 4.03662 18.3462 4.34652 18.6828C4.65643 19.0193 5.08154 19.227 5.53748 19.2647L5.68748 19.2709H19.75C20.2076 19.2709 20.6485 19.0987 20.9851 18.7886C21.3217 18.4785 21.5293 18.0531 21.5666 17.597L21.5729 17.448V9.76362ZM19.75 5.72925H5.68748C5.22999 5.72927 4.78923 5.9013 4.4527 6.21121C4.11616 6.52111 3.90846 6.94623 3.87081 7.40216L3.86456 7.55216V7.99904L12.7187 12.6584L21.5729 7.998V7.55216C21.5729 7.09451 21.4007 6.65361 21.0906 6.31705C20.7804 5.98049 20.3551 5.77289 19.8989 5.7355L19.75 5.72925Z" fill="#2A2A2A"/>
</svg>
