<svg width="22" height="18" viewBox="0 0 22 18" fill="none" xmlns="http://www.w3.org/2000/svg">
<path d="M3.68754 0.666626H17.75C18.6148 0.666569 19.4467 0.997411 20.0753 1.59128C20.7038 2.18516 21.0813 2.99704 21.1303 3.86038L21.1355 4.05204V13.9479C21.1355 14.8126 20.8047 15.6446 20.2108 16.2731C19.6169 16.9017 18.805 17.2791 17.9417 17.3281L17.75 17.3333H3.68754C2.82281 17.3333 1.99084 17.0025 1.3623 16.4086C0.733756 15.8148 0.356289 15.0029 0.307332 14.1395L0.302124 13.9479V4.05204C0.302067 3.18732 0.63291 2.35535 1.22678 1.7268C1.82065 1.09826 2.63253 0.720791 3.49587 0.671834L3.68754 0.666626ZM19.573 6.2635L11.0834 10.7323C10.9875 10.7829 10.8822 10.813 10.774 10.8207C10.6659 10.8284 10.5573 10.8136 10.4552 10.777L10.3552 10.7333L1.86462 6.26454V13.9479C1.86464 14.4054 2.03668 14.8461 2.34658 15.1827C2.65649 15.5192 3.0816 15.7269 3.53754 15.7645L3.68754 15.7708H17.75C18.2077 15.7708 18.6486 15.5986 18.9852 15.2885C19.3217 14.9783 19.5293 14.553 19.5667 14.0968L19.573 13.9479V6.2635ZM17.75 2.22913H3.68754C3.23005 2.22914 2.78929 2.40118 2.45276 2.71108C2.11622 3.02099 1.90852 3.4461 1.87087 3.90204L1.86462 4.05204V4.49892L10.7188 9.15829L19.573 4.49788V4.05204C19.5729 3.59439 19.4007 3.15349 19.0906 2.81693C18.7805 2.48037 18.3551 2.27277 17.899 2.23538L17.75 2.22913Z" fill="white"/>
</svg>
