<svg width="36" height="35" viewBox="0 0 36 35" fill="none" xmlns="http://www.w3.org/2000/svg">
<path d="M8.56252 5.8335H28.25C29.4606 5.83342 30.6254 6.2966 31.5054 7.12802C32.3853 7.95944 32.9138 9.09607 32.9823 10.3047L32.9896 10.5731V24.4272C32.9897 25.6379 32.5265 26.8026 31.6951 27.6826C30.8637 28.5625 29.727 29.091 28.5184 29.1595L28.25 29.1668H8.56252C7.3519 29.1669 6.18715 28.7037 5.30718 27.8723C4.42722 27.0409 3.89877 25.9043 3.83023 24.6956L3.82294 24.4272V10.5731C3.82286 9.36246 4.28604 8.1977 5.11746 7.31774C5.94888 6.43778 7.08551 5.90933 8.29419 5.84079L8.56252 5.8335ZM30.8021 13.6691L18.9167 19.9254C18.7825 19.9963 18.635 20.0385 18.4836 20.0493C18.3322 20.06 18.1802 20.0392 18.0373 19.9881L17.8973 19.9268L6.01044 13.6706V24.4272C6.01046 25.0677 6.25131 25.6848 6.68518 26.1559C7.11905 26.6271 7.71421 26.9179 8.35252 26.9706L8.56252 26.9793H28.25C28.8907 26.9793 29.508 26.7382 29.9792 26.3041C30.4504 25.8699 30.741 25.2744 30.7934 24.6358L30.8021 24.4272V13.6691ZM28.25 8.021H8.56252C7.92203 8.02102 7.30497 8.26187 6.83383 8.69574C6.36268 9.1296 6.07189 9.72477 6.01919 10.3631L6.01044 10.5731V11.1987L18.4063 17.7218L30.8021 11.1972V10.5731C30.802 9.93236 30.561 9.31511 30.1268 8.84392C29.6927 8.37274 29.0971 8.0821 28.4586 8.02975L28.25 8.021Z" fill="white"/>
</svg>
