<svg width="36" height="35" viewBox="0 0 36 35" fill="none" xmlns="http://www.w3.org/2000/svg">
<path d="M17.7501 7.50008C16.514 7.50007 15.3056 7.86664 14.2778 8.5534C13.25 9.24017 12.4489 10.2163 11.9758 11.3583C11.5028 12.5004 11.379 13.7571 11.6202 14.9695C11.8613 16.1819 12.4566 17.2955 13.3307 18.1696C14.2048 19.0437 15.3184 19.6389 16.5308 19.8801C17.7432 20.1213 18.9999 19.9975 20.1419 19.5244C21.284 19.0514 22.2601 18.2503 22.9469 17.2225C23.6336 16.1947 24.0002 14.9863 24.0002 13.7501C24.0002 12.0925 23.3417 10.5028 22.1696 9.33068C20.9975 8.15856 19.4078 7.50008 17.7501 7.50008ZM17.7501 17.5002C17.0085 17.5002 16.2834 17.2802 15.6667 16.8682C15.05 16.4561 14.5694 15.8704 14.2856 15.1852C14.0017 14.5 13.9275 13.746 14.0722 13.0185C14.2169 12.2911 14.574 11.6229 15.0985 11.0985C15.6229 10.574 16.2911 10.2169 17.0185 10.0722C17.746 9.92746 18.5 10.0017 19.1852 10.2856C19.8704 10.5694 20.4561 11.05 20.8682 11.6667C21.2802 12.2834 21.5002 13.0085 21.5002 13.7501C21.5002 14.7447 21.1051 15.6985 20.4018 16.4018C19.6985 17.1051 18.7447 17.5002 17.7501 17.5002ZM17.7501 0C14.1046 0.00413556 10.6096 1.45413 8.03189 4.03189C5.45413 6.60964 4.00414 10.1046 4 13.7501C4 18.6564 6.26721 23.8565 10.5626 28.7894C12.4926 31.0184 14.6649 33.0256 17.0392 34.7738C17.2494 34.921 17.4998 35 17.7564 35C18.013 35 18.2634 34.921 18.4736 34.7738C20.8435 33.0248 23.0116 31.0177 24.9377 28.7894C29.2268 23.8565 31.5003 18.6564 31.5003 13.7501C31.4961 10.1046 30.0461 6.60964 27.4684 4.03189C24.8906 1.45413 21.3956 0.00413556 17.7501 0ZM17.7501 32.1878C15.1673 30.1566 6.50003 22.6955 6.50003 13.7501C6.50003 10.7664 7.6853 7.90491 9.79511 5.79511C11.9049 3.6853 14.7664 2.50003 17.7501 2.50003C20.7339 2.50003 23.5954 3.6853 25.7052 5.79511C27.815 7.90491 29.0002 10.7664 29.0002 13.7501C29.0002 22.6924 20.333 30.1566 17.7501 32.1878Z" fill="#2A2A2A"/>
</svg>
