<svg width="25" height="25" viewBox="0 0 25 25" fill="none" xmlns="http://www.w3.org/2000/svg">
<path d="M12.9287 5.14291C12.081 5.14291 11.2524 5.39426 10.5476 5.86519C9.84284 6.33611 9.29352 7.00546 8.96914 7.78858C8.64476 8.5717 8.55989 9.43342 8.72526 10.2648C8.89062 11.0961 9.2988 11.8598 9.89818 12.4592C10.4976 13.0585 11.2612 13.4667 12.0926 13.6321C12.9239 13.7974 13.7856 13.7126 14.5688 13.3882C15.3519 13.0638 16.0212 12.5145 16.4921 11.8097C16.9631 11.1049 17.2144 10.2763 17.2144 9.42867C17.2144 8.29201 16.7629 7.20191 15.9592 6.39818C15.1554 5.59444 14.0653 5.14291 12.9287 5.14291ZM12.9287 12.0001C12.4201 12.0001 11.9229 11.8493 11.5 11.5668C11.0772 11.2842 10.7476 10.8826 10.553 10.4127C10.3583 9.94285 10.3074 9.42581 10.4066 8.927C10.5058 8.42819 10.7507 7.97 11.1104 7.61037C11.47 7.25075 11.9282 7.00584 12.427 6.90662C12.9258 6.8074 13.4428 6.85832 13.9127 7.05295C14.3826 7.24758 14.7842 7.57717 15.0668 8.00004C15.3493 8.42292 15.5001 8.92008 15.5001 9.42867C15.5001 10.1107 15.2292 10.7647 14.747 11.247C14.2647 11.7292 13.6107 12.0001 12.9287 12.0001ZM12.9287 0C10.4289 0.00283581 8.03233 0.997121 6.26472 2.76472C4.49712 4.53233 3.50284 6.9289 3.5 9.42867C3.5 12.793 5.05466 16.3587 8.00005 19.7413C9.32351 21.2697 10.8131 22.6461 12.4412 23.8449C12.5853 23.9458 12.757 24 12.933 24C13.1089 24 13.2806 23.9458 13.4247 23.8449C15.0498 22.6456 16.5365 21.2693 17.8573 19.7413C20.7984 16.3587 22.3573 12.793 22.3573 9.42867C22.3545 6.9289 21.3602 4.53233 19.5926 2.76472C17.825 0.997121 15.4284 0.00283581 12.9287 0ZM12.9287 22.0716C11.1576 20.6788 5.2143 15.5627 5.2143 9.42867C5.2143 7.38269 6.02706 5.42051 7.47379 3.97379C8.92051 2.52706 10.8827 1.7143 12.9287 1.7143C14.9746 1.7143 16.9368 2.52706 18.3835 3.97379C19.8303 5.42051 20.643 7.38269 20.643 9.42867C20.643 15.5605 14.6998 20.6788 12.9287 22.0716Z" fill="white"/>
</svg>
