<svg width="36" height="35" viewBox="0 0 36 35" fill="none" xmlns="http://www.w3.org/2000/svg">
<path d="M8.49318 2.90519C8.36404 2.73907 8.20104 2.60233 8.015 2.50405C7.82895 2.40578 7.62413 2.34821 7.41413 2.33517C7.20412 2.32214 6.99375 2.35394 6.79698 2.42845C6.60021 2.50297 6.42155 2.6185 6.27287 2.76737L4.01099 5.03144C2.95443 6.09019 2.56505 7.58863 3.02662 8.90331C4.9423 14.3449 8.05851 19.2854 12.1441 23.3583C16.2171 27.4439 21.1576 30.5601 26.5991 32.4758C27.9138 32.9374 29.4122 32.548 30.471 31.4914L32.7329 29.2296C32.8817 29.0809 32.9973 28.9022 33.0718 28.7054C33.1463 28.5087 33.1781 28.2983 33.1651 28.0883C33.152 27.8783 33.0945 27.6735 32.9962 27.4874C32.8979 27.3014 32.7612 27.1384 32.5951 27.0092L27.5485 23.0849C27.371 22.9472 27.1646 22.8517 26.9448 22.8055C26.725 22.7592 26.4976 22.7635 26.2797 22.818L21.4891 24.0146C20.8497 24.1744 20.1797 24.1659 19.5445 23.9899C18.9093 23.814 18.3305 23.4766 17.8644 23.0105L12.4919 17.6358C12.0255 17.17 11.6876 16.5912 11.5113 15.956C11.335 15.3208 11.3261 14.6508 11.4857 14.0111L12.6844 9.2205C12.7389 9.00262 12.7432 8.7752 12.697 8.55542C12.6507 8.33564 12.5552 8.12922 12.4176 7.95175L8.49318 2.90519ZM4.6213 1.118C5.0041 0.735077 5.46399 0.437973 5.97042 0.246415C6.47685 0.0548577 7.01824 -0.0267696 7.55864 0.00695356C8.09904 0.0406767 8.62608 0.188979 9.10476 0.442012C9.58345 0.695045 10.0028 1.04702 10.3351 1.47456L14.2594 6.51894C14.9791 7.44425 15.2329 8.64956 14.9485 9.78706L13.7519 14.5777C13.6901 14.8258 13.6934 15.0857 13.7616 15.3322C13.8299 15.5786 13.9606 15.8033 14.1413 15.9843L19.516 21.3589C19.6972 21.54 19.9222 21.671 20.1691 21.7392C20.416 21.8074 20.6763 21.8106 20.9247 21.7483L25.7132 20.5518C26.2745 20.4114 26.8604 20.4005 27.4266 20.5199C27.9928 20.6392 28.5244 20.8858 28.9813 21.2408L34.0257 25.1652C35.8391 26.5761 36.0054 29.2558 34.3822 30.8767L32.1204 33.1386C30.5016 34.7574 28.0822 35.4683 25.8269 34.6742C20.0545 32.6432 14.8135 29.3386 10.4926 25.0055C6.15975 20.6852 2.85513 15.4449 0.823804 9.67331C0.0319286 7.42019 0.742866 4.99862 2.36162 3.37987L4.62349 1.118H4.6213Z" fill="#2A2A2A"/>
</svg>
