<svg width="25" height="26" viewBox="0 0 25 26" fill="none" xmlns="http://www.w3.org/2000/svg">
<path d="M12.1094 0.890625C5.41992 0.890625 0 6.31055 0 13C0 19.6895 5.41992 25.1094 12.1094 25.1094C18.7988 25.1094 24.2188 19.6895 24.2188 13C24.2188 6.31055 18.7988 0.890625 12.1094 0.890625ZM18.0566 9.18652L16.0693 18.5518C15.9229 19.2158 15.5273 19.377 14.9756 19.0645L11.9482 16.833L10.4883 18.2393C10.3271 18.4004 10.1904 18.5371 9.87793 18.5371L10.0928 15.4561L15.7031 10.3877C15.9473 10.1729 15.6494 10.0508 15.3271 10.2656L8.39355 14.6309L5.40527 13.6982C4.75586 13.4932 4.74121 13.0488 5.54199 12.7363L17.2168 8.23437C17.7588 8.03906 18.2324 8.36621 18.0566 9.18652Z" fill="#2AABEE"/>
</svg>
