<svg width="34" height="35" viewBox="0 0 34 35" fill="none" xmlns="http://www.w3.org/2000/svg">
<path d="M16.9531 0.546875C7.58789 0.546875 0 8.13477 0 17.5C0 26.8652 7.58789 34.4531 16.9531 34.4531C26.3184 34.4531 33.9062 26.8652 33.9062 17.5C33.9062 8.13477 26.3184 0.546875 16.9531 0.546875ZM25.2793 12.1611L22.4971 25.2725C22.292 26.2021 21.7383 26.4277 20.9658 25.9902L16.7275 22.8662L14.6836 24.835C14.458 25.0605 14.2666 25.252 13.8291 25.252L14.1299 20.9385L21.9844 13.8428C22.3262 13.542 21.9092 13.3711 21.458 13.6719L11.751 19.7832L7.56738 18.4775C6.6582 18.1904 6.6377 17.5684 7.75879 17.1309L24.1035 10.8281C24.8623 10.5547 25.5254 11.0127 25.2793 12.1611Z" fill="white"/>
</svg>
