<svg width="26" height="26" viewBox="0 0 26 26" fill="none" xmlns="http://www.w3.org/2000/svg">
<path d="M8.51559 6.96046C8.32199 6.93228 8.12458 6.97125 7.95621 7.07087H7.94163C7.55101 7.30004 7.19892 7.58858 6.89892 7.92817C6.64892 8.21671 6.51351 8.50837 6.47809 8.78962C6.45726 8.95629 6.47184 9.12504 6.5208 9.28442L6.53955 9.29483C6.8208 10.1209 7.18746 10.9157 7.63538 11.6636C8.21294 12.7141 8.92367 13.6857 9.74996 14.5542L9.77496 14.5896L9.81455 14.6188L9.83851 14.6469L9.86767 14.6719C10.7393 15.5007 11.7131 16.2148 12.7656 16.7969C13.9687 17.4521 14.6989 17.7615 15.1375 17.8907V17.8969C15.2656 17.9365 15.3823 17.9542 15.5 17.9542C15.8734 17.9266 16.2269 17.7748 16.5041 17.523C16.8427 17.223 17.1291 16.8698 17.352 16.4771V16.4698C17.5614 16.074 17.4906 15.7011 17.1885 15.448C16.5817 14.9178 15.9256 14.4469 15.2291 14.0417C14.7625 13.7886 14.2885 13.9417 14.0968 14.198L13.6875 14.7146C13.477 14.9709 13.0958 14.9355 13.0958 14.9355L13.0854 14.9417C10.2406 14.2157 9.48122 11.3355 9.48122 11.3355C9.48122 11.3355 9.4458 10.9438 9.70934 10.7438L10.2218 10.3313C10.4677 10.1313 10.6385 9.65837 10.375 9.19171C9.97247 8.49459 9.50251 7.83866 8.97184 7.23337C8.8561 7.09092 8.69378 6.9939 8.51351 6.95942L8.51559 6.96046ZM13.3229 5.70837C13.1847 5.70837 13.0523 5.76325 12.9546 5.86092C12.8569 5.9586 12.802 6.09107 12.802 6.22921C12.802 6.36734 12.8569 6.49982 12.9546 6.59749C13.0523 6.69517 13.1847 6.75004 13.3229 6.75004C14.6395 6.75004 15.7333 7.18025 16.5989 8.00525C17.0437 8.45629 17.3906 8.99067 17.6177 9.57608C17.8458 10.1625 17.95 10.7886 17.9229 11.4157C17.9171 11.5538 17.9664 11.6886 18.06 11.7904C18.1535 11.8921 18.2837 11.9526 18.4218 11.9584C18.56 11.9642 18.6948 11.9149 18.7965 11.8213C18.8983 11.7277 18.9587 11.5975 18.9645 11.4594C18.9969 10.688 18.8688 9.91836 18.5885 9.199C18.307 8.47622 17.8801 7.81891 17.3343 7.26775L17.3239 7.25733C16.25 6.23129 14.8916 5.70837 13.3229 5.70837Z" fill="#62569D"/>
<path d="M13.2865 7.42084C13.1483 7.42084 13.0158 7.47571 12.9182 7.57339C12.8205 7.67107 12.7656 7.80354 12.7656 7.94167C12.7656 8.07981 12.8205 8.21228 12.9182 8.30996C13.0158 8.40763 13.1483 8.46251 13.2865 8.46251H13.3042C14.2542 8.53022 14.9458 8.84688 15.4302 9.36667C15.9271 9.90209 16.1844 10.5677 16.1646 11.3906C16.1614 11.5288 16.2132 11.6625 16.3087 11.7624C16.4041 11.8623 16.5353 11.9203 16.6734 11.9234C16.8116 11.9266 16.9453 11.8748 17.0452 11.7794C17.1452 11.6839 17.2031 11.5527 17.2063 11.4146C17.2313 10.3344 16.8833 9.40209 16.1938 8.65834V8.65626C15.4885 7.90001 14.5208 7.50001 13.3563 7.42188L13.3385 7.4198L13.2865 7.42084Z" fill="#62569D"/>
<path d="M13.2667 9.16559C13.197 9.15944 13.1268 9.1674 13.0602 9.18899C12.9936 9.21058 12.9321 9.24536 12.8793 9.29125C12.8265 9.33715 12.7834 9.39322 12.7528 9.45611C12.7221 9.519 12.7044 9.58743 12.7008 9.65731C12.6971 9.72718 12.7076 9.79708 12.7316 9.86282C12.7556 9.92856 12.7925 9.98879 12.8403 10.0399C12.8881 10.0911 12.9456 10.1321 13.0096 10.1604C13.0735 10.1888 13.1426 10.204 13.2125 10.2052C13.6479 10.2281 13.9261 10.3593 14.1011 10.5354C14.2771 10.7125 14.4084 10.9968 14.4323 11.4416C14.4336 11.5115 14.449 11.5804 14.4775 11.6443C14.506 11.7081 14.547 11.7656 14.5982 11.8132C14.6494 11.8608 14.7096 11.8977 14.7753 11.9215C14.841 11.9454 14.9109 11.9558 14.9807 11.952C15.0505 11.9483 15.1188 11.9306 15.1816 11.8999C15.2445 11.8693 15.3005 11.8262 15.3463 11.7735C15.3921 11.7207 15.4269 11.6592 15.4485 11.5927C15.47 11.5262 15.478 11.4561 15.4719 11.3864C15.4386 10.7614 15.2427 10.2093 14.8417 9.80309C14.4386 9.39684 13.8896 9.19892 13.2667 9.16559Z" fill="#62569D"/>
<path fill-rule="evenodd" clip-rule="evenodd" d="M7.58025 2.98331C10.8949 2.24238 14.3323 2.24238 17.6469 2.98331L18 3.06144C18.969 3.27805 19.8589 3.75907 20.5709 4.45104C21.283 5.14302 21.7892 6.01885 22.0334 6.98123C22.8747 10.2967 22.8747 13.7699 22.0334 17.0854C21.7892 18.0478 21.283 18.9236 20.5709 19.6156C19.8589 20.3076 18.969 20.7886 18 21.0052L17.6459 21.0833C15.5699 21.5476 13.4396 21.7225 11.3157 21.6031L8.55213 24.076C8.44794 24.1693 8.32063 24.2329 8.18347 24.2602C8.04631 24.2875 7.90435 24.2775 7.77239 24.2312C7.64043 24.1849 7.52331 24.104 7.43326 23.997C7.34322 23.89 7.28354 23.7608 7.26046 23.6229L6.80317 20.8916C5.92628 20.6188 5.13401 20.1256 4.5021 19.4592C3.87018 18.7928 3.41973 17.9755 3.1938 17.0854C2.35239 13.7699 2.35239 10.2967 3.1938 6.98123C3.43798 6.01885 3.94421 5.14302 4.65623 4.45104C5.36825 3.75907 6.25817 3.27805 7.22713 3.06144L7.58025 2.98331ZM17.3063 4.50727C14.216 3.81644 11.0112 3.81644 7.92088 4.50727L7.56671 4.58644C6.87996 4.74025 6.24928 5.08139 5.74471 5.57199C5.24013 6.06259 4.88141 6.68344 4.70838 7.3656C3.931 10.4289 3.931 13.6378 4.70838 16.701C4.88149 17.3833 5.24037 18.0043 5.74514 18.4949C6.24991 18.9855 6.88081 19.3266 7.56775 19.4802L7.6615 19.501C7.81316 19.5349 7.95126 19.6133 8.05814 19.7261C8.16502 19.839 8.23583 19.9811 8.2615 20.1344L8.56775 21.9656L10.5178 20.2208C10.5956 20.1509 10.6867 20.0974 10.7857 20.0634C10.8846 20.0294 10.9894 20.0156 11.0938 20.0229C13.1762 20.1706 15.2689 20.0145 17.3063 19.5594L17.6594 19.4802C18.3464 19.3266 18.9773 18.9855 19.482 18.4949C19.9868 18.0043 20.3457 17.3833 20.5188 16.701C21.2959 13.6385 21.2959 10.4291 20.5188 7.3656C20.3457 6.68331 19.9868 6.06237 19.482 5.57176C18.9773 5.08114 18.3464 4.74007 17.6594 4.58644L17.3063 4.50727Z" fill="#62569D"/>
</svg>
