<svg width="36" height="35" viewBox="0 0 36 35" fill="none" xmlns="http://www.w3.org/2000/svg">
<path d="M12.5219 9.04442C12.2508 9.00497 11.9745 9.05952 11.7387 9.199H11.7183C11.1715 9.51984 10.6785 9.9238 10.2585 10.3992C9.90854 10.8032 9.71895 11.2115 9.66937 11.6053C9.6402 11.8386 9.66062 12.0748 9.72916 12.298L9.75541 12.3125C10.1492 13.469 10.6625 14.5817 11.2896 15.6288C12.0982 17.0995 13.0932 18.4597 14.25 19.6757L14.285 19.7253L14.3404 19.7661L14.374 19.8055L14.4148 19.8405C15.635 21.0008 16.9984 22.0005 18.4719 22.8155C20.1562 23.7328 21.1785 24.1659 21.7925 24.3467V24.3555C21.9719 24.4109 22.1352 24.4357 22.3 24.4357C22.8229 24.397 23.3178 24.1845 23.7058 23.8319C24.1798 23.4119 24.5808 22.9175 24.8929 22.3678V22.3575C25.186 21.8034 25.0869 21.2813 24.664 20.9269C23.8145 20.1847 22.8959 19.5254 21.9208 18.9582C21.2675 18.6038 20.604 18.8182 20.3356 19.1769L19.7625 19.9003C19.4679 20.259 18.9342 20.2094 18.9342 20.2094L18.9196 20.2182C14.9369 19.2017 13.8737 15.1694 13.8737 15.1694C13.8737 15.1694 13.8242 14.6211 14.1931 14.3411L14.9106 13.7636C15.2548 13.4836 15.494 12.8215 15.125 12.1682C14.5615 11.1922 13.9036 10.2739 13.1606 9.4265C12.9986 9.22707 12.7713 9.09124 12.519 9.04296L12.5219 9.04442ZM19.2521 7.2915C19.0587 7.2915 18.8732 7.36833 18.7365 7.50507C18.5997 7.64182 18.5229 7.82728 18.5229 8.02067C18.5229 8.21406 18.5997 8.39952 18.7365 8.53627C18.8732 8.67301 19.0587 8.74984 19.2521 8.74984C21.0954 8.74984 22.6267 9.35213 23.8385 10.5071C24.4612 11.1386 24.9469 11.8867 25.2648 12.7063C25.5842 13.5273 25.73 14.4038 25.6921 15.2817C25.684 15.4751 25.753 15.6638 25.884 15.8063C26.015 15.9488 26.1972 16.0334 26.3906 16.0415C26.584 16.0496 26.7727 15.9806 26.9152 15.8496C27.0577 15.7186 27.1423 15.5364 27.1504 15.343C27.1956 14.263 27.0164 13.1855 26.624 12.1784C26.2298 11.1665 25.6322 10.2463 24.8681 9.47463L24.8535 9.46005C23.35 8.02359 21.4483 7.2915 19.2521 7.2915Z" fill="white"/>
<path d="M19.201 9.68896C19.0076 9.68896 18.8222 9.76578 18.6854 9.90253C18.5487 10.0393 18.4719 10.2247 18.4719 10.4181C18.4719 10.6115 18.5487 10.797 18.6854 10.9337C18.8222 11.0705 19.0076 11.1473 19.201 11.1473H19.2258C20.5558 11.2421 21.5242 11.6854 22.2023 12.4131C22.8979 13.1627 23.2581 14.0946 23.2304 15.2467C23.226 15.4401 23.2985 15.6273 23.4321 15.7672C23.5657 15.9071 23.7494 15.9882 23.9428 15.9926C24.1362 15.9971 24.3234 15.9245 24.4633 15.7909C24.6032 15.6573 24.6843 15.4736 24.6887 15.2802C24.7237 13.7679 24.2367 12.4627 23.2712 11.4215V11.4185C22.2839 10.3598 20.9292 9.79979 19.2987 9.69042L19.2739 9.6875L19.201 9.68896Z" fill="white"/>
<path d="M19.1733 12.1317C19.0757 12.1231 18.9774 12.1343 18.8842 12.1645C18.7911 12.1947 18.7049 12.2434 18.631 12.3077C18.557 12.3719 18.4968 12.4504 18.4538 12.5385C18.4109 12.6265 18.3862 12.7223 18.3811 12.8201C18.376 12.918 18.3906 13.0158 18.4242 13.1078C18.4577 13.1999 18.5095 13.2842 18.5764 13.3558C18.6432 13.4274 18.7238 13.4848 18.8134 13.5245C18.9029 13.5643 18.9995 13.5856 19.0975 13.5871C19.7071 13.6192 20.0964 13.803 20.3414 14.0494C20.5879 14.2974 20.7717 14.6955 20.8052 15.3182C20.807 15.416 20.8285 15.5125 20.8684 15.6019C20.9083 15.6913 20.9658 15.7717 21.0374 15.8384C21.1091 15.905 21.1934 15.9566 21.2854 15.99C21.3774 16.0234 21.4752 16.038 21.5729 16.0328C21.6706 16.0276 21.7663 16.0028 21.8543 15.9598C21.9422 15.9169 22.0206 15.8566 22.0848 15.7827C22.1489 15.7088 22.1976 15.6228 22.2278 15.5297C22.258 15.4366 22.2692 15.3384 22.2606 15.2409C22.2139 14.3659 21.9398 13.593 21.3783 13.0242C20.8139 12.4555 20.0454 12.1784 19.1733 12.1317Z" fill="white"/>
<path fill-rule="evenodd" clip-rule="evenodd" d="M11.2123 3.47671C15.8528 2.4394 20.6651 2.4394 25.3056 3.47671L25.8 3.58609C27.1565 3.88935 28.4024 4.56277 29.3993 5.53154C30.3961 6.5003 31.1048 7.72647 31.4467 9.07379C32.6246 13.7155 32.6246 18.5779 31.4467 23.2196C31.1048 24.567 30.3961 25.7931 29.3993 26.7619C28.4024 27.7306 27.1565 28.4041 25.8 28.7073L25.3042 28.8167C22.3977 29.4667 19.4154 29.7116 16.4419 29.5444L12.5729 33.0065C12.4271 33.1371 12.2488 33.2261 12.0568 33.2644C11.8648 33.3026 11.666 33.2885 11.4813 33.2237C11.2965 33.1589 11.1326 33.0457 11.0065 32.8959C10.8804 32.7461 10.7969 32.5652 10.7646 32.3721L10.1244 28.5484C8.89672 28.1664 7.78755 27.4759 6.90287 26.543C6.01819 25.6101 5.38756 24.4658 5.07125 23.2196C3.89328 18.5779 3.89328 13.7155 5.07125 9.07379C5.41311 7.72647 6.12183 6.5003 7.11865 5.53154C8.11548 4.56277 9.36138 3.88935 10.7179 3.58609L11.2123 3.47671ZM24.8287 5.61025C20.5023 4.64309 16.0156 4.64309 11.6892 5.61025L11.1933 5.72109C10.2319 5.93642 9.34893 6.41402 8.64252 7.10086C7.93612 7.7877 7.43391 8.65689 7.19166 9.61192C6.10333 13.9005 6.10333 18.3929 7.19166 22.6815C7.43402 23.6367 7.93645 24.506 8.64313 25.1929C9.34981 25.8797 10.2331 26.3572 11.1948 26.5723L11.326 26.6015C11.5384 26.649 11.7317 26.7587 11.8813 26.9167C12.031 27.0746 12.1301 27.2736 12.166 27.4882L12.5948 30.0519L15.3248 27.6092C15.4338 27.5114 15.5614 27.4364 15.6999 27.3888C15.8384 27.3412 15.9851 27.322 16.1312 27.3321C19.0465 27.5389 21.9764 27.3203 24.8287 26.6832L25.3231 26.5723C26.2848 26.3572 27.1681 25.8797 27.8748 25.1929C28.5815 24.506 29.0839 23.6367 29.3262 22.6815C30.4142 18.394 30.4142 13.9009 29.3262 9.61192C29.0839 8.65671 28.5815 7.78739 27.8748 7.10053C27.1681 6.41367 26.2848 5.93618 25.3231 5.72109L24.8287 5.61025Z" fill="white"/>
</svg>
