<svg width="36" height="35" viewBox="0 0 36 35" fill="none" xmlns="http://www.w3.org/2000/svg">
<path d="M18 32.8125C14.9715 32.8125 12.011 31.9144 9.49284 30.2319C6.97471 28.5493 5.01207 26.1578 3.8531 23.3598C2.69413 20.5619 2.3909 17.483 2.98173 14.5127C3.57257 11.5424 5.03094 8.81392 7.17243 6.67243C9.31392 4.53094 12.0424 3.07257 15.0127 2.48173C17.983 1.8909 21.0619 2.19413 23.8598 3.3531C26.6578 4.51207 29.0493 6.47471 30.7319 8.99284C32.4144 11.511 33.3125 14.4715 33.3125 17.5C33.3125 21.5611 31.6992 25.4559 28.8276 28.3276C25.9559 31.1992 22.0611 32.8125 18 32.8125ZM18 4.37501C15.4041 4.37501 12.8665 5.14477 10.7081 6.58697C8.54975 8.02916 6.86749 10.079 5.87409 12.4773C4.88069 14.8756 4.62077 17.5146 5.1272 20.0606C5.63363 22.6066 6.88367 24.9452 8.71923 26.7808C10.5548 28.6163 12.8934 29.8664 15.4394 30.3728C17.9854 30.8792 20.6244 30.6193 23.0227 29.6259C25.421 28.6325 27.4708 26.9503 28.913 24.7919C30.3552 22.6335 31.125 20.0959 31.125 17.5C31.125 14.019 29.7422 10.6806 27.2808 8.21923C24.8194 5.75781 21.481 4.37501 18 4.37501Z" fill="#2A2A2A"/>
<path d="M23.0203 24.0625L16.9062 17.9484V7.65625H19.0938V17.0406L24.5625 22.5203L23.0203 24.0625Z" fill="#2A2A2A"/>
</svg>
