<svg width="25" height="26" viewBox="0 0 25 26" fill="none" xmlns="http://www.w3.org/2000/svg">
<path d="M19.8437 5.61456C18.8887 4.6499 17.7512 3.88505 16.4975 3.36462C15.2438 2.84418 13.899 2.57859 12.5416 2.58331C6.85413 2.58331 2.21871 7.21873 2.21871 12.9062C2.21871 14.7291 2.69788 16.5 3.59371 18.0625L2.13538 23.4166L7.60413 21.9791C9.11454 22.8021 10.8125 23.2396 12.5416 23.2396C18.2291 23.2396 22.8645 18.6041 22.8645 12.9166C22.8645 10.1562 21.7916 7.56248 19.8437 5.61456ZM12.5416 21.4896C11 21.4896 9.48954 21.0729 8.16663 20.2916L7.85413 20.1041L4.60413 20.9583L5.46871 17.7916L5.26038 17.4687C4.40386 16.101 3.94906 14.52 3.94788 12.9062C3.94788 8.17706 7.80204 4.3229 12.5312 4.3229C14.8229 4.3229 16.9791 5.21873 18.5937 6.84373C19.3932 7.63953 20.0267 8.58609 20.4577 9.62855C20.8886 10.671 21.1083 11.7886 21.1041 12.9166C21.125 17.6458 17.2708 21.4896 12.5416 21.4896ZM17.25 15.0729C16.9895 14.9479 15.7187 14.3229 15.4895 14.2291C15.25 14.1458 15.0833 14.1041 14.9062 14.3541C14.7291 14.6146 14.2395 15.1979 14.0937 15.3646C13.9479 15.5416 13.7916 15.5625 13.5312 15.4271C13.2708 15.3021 12.4375 15.0208 11.4583 14.1458C10.6875 13.4583 10.177 12.6146 10.0208 12.3541C9.87496 12.0937 9.99996 11.9583 10.1354 11.8229C10.25 11.7083 10.3958 11.5208 10.5208 11.375C10.6458 11.2291 10.6979 11.1146 10.7812 10.9479C10.8645 10.7708 10.8229 10.625 10.7604 10.5C10.6979 10.375 10.177 9.10415 9.96871 8.58331C9.76038 8.08331 9.54163 8.14581 9.38538 8.1354H8.88538C8.70829 8.1354 8.43746 8.1979 8.19788 8.45831C7.96871 8.71873 7.30204 9.34373 7.30204 10.6146C7.30204 11.8854 8.22913 13.1146 8.35413 13.2812C8.47913 13.4583 10.177 16.0625 12.7604 17.1771C13.375 17.4479 13.8541 17.6041 14.2291 17.7187C14.8437 17.9166 15.4062 17.8854 15.8541 17.8229C16.3541 17.75 17.3854 17.1979 17.5937 16.5937C17.8125 15.9896 17.8125 15.4791 17.7395 15.3646C17.6666 15.25 17.5104 15.1979 17.25 15.0729Z" fill="#60D669"/>
</svg>
