<svg width="35" height="35" viewBox="0 0 35 35" fill="none" xmlns="http://www.w3.org/2000/svg">
<path d="M7.99318 2.90519C7.86404 2.73907 7.70104 2.60233 7.515 2.50405C7.32895 2.40578 7.12413 2.34821 6.91413 2.33517C6.70412 2.32214 6.49375 2.35394 6.29698 2.42845C6.10021 2.50297 5.92155 2.6185 5.77287 2.76737L3.51099 5.03144C2.45443 6.09019 2.06505 7.58863 2.52662 8.90331C4.4423 14.3449 7.55851 19.2854 11.6441 23.3583C15.7171 27.4439 20.6576 30.5601 26.0991 32.4758C27.4138 32.9374 28.9122 32.548 29.971 31.4914L32.2329 29.2296C32.3817 29.0809 32.4973 28.9022 32.5718 28.7054C32.6463 28.5087 32.6781 28.2983 32.6651 28.0883C32.652 27.8783 32.5945 27.6735 32.4962 27.4874C32.3979 27.3014 32.2612 27.1384 32.0951 27.0092L27.0485 23.0849C26.871 22.9472 26.6646 22.8517 26.4448 22.8055C26.225 22.7592 25.9976 22.7635 25.7797 22.818L20.9891 24.0146C20.3497 24.1744 19.6797 24.1659 19.0445 23.9899C18.4093 23.814 17.8305 23.4766 17.3644 23.0105L11.9919 17.6358C11.5255 17.17 11.1876 16.5912 11.0113 15.956C10.835 15.3208 10.8261 14.6508 10.9857 14.0111L12.1844 9.2205C12.2389 9.00262 12.2432 8.7752 12.197 8.55542C12.1507 8.33564 12.0552 8.12922 11.9176 7.95175L7.99318 2.90519ZM4.1213 1.118C4.5041 0.735077 4.96399 0.437973 5.47042 0.246415C5.97685 0.0548577 6.51824 -0.0267696 7.05864 0.00695356C7.59904 0.0406767 8.12608 0.188979 8.60476 0.442012C9.08345 0.695045 9.50283 1.04702 9.83505 1.47456L13.7594 6.51894C14.4791 7.44425 14.7329 8.64956 14.4485 9.78706L13.2519 14.5777C13.1901 14.8258 13.1934 15.0857 13.2616 15.3322C13.3299 15.5786 13.4606 15.8033 13.6413 15.9843L19.016 21.3589C19.1972 21.54 19.4222 21.671 19.6691 21.7392C19.916 21.8074 20.1763 21.8106 20.4247 21.7483L25.2132 20.5518C25.7745 20.4114 26.3604 20.4005 26.9266 20.5199C27.4928 20.6392 28.0244 20.8858 28.4813 21.2408L33.5257 25.1652C35.3391 26.5761 35.5054 29.2558 33.8822 30.8767L31.6204 33.1386C30.0016 34.7574 27.5822 35.4683 25.3269 34.6742C19.5545 32.6432 14.3135 29.3386 9.99255 25.0055C5.65975 20.6852 2.35513 15.4449 0.323804 9.67331C-0.468071 7.42019 0.242866 4.99862 1.86162 3.37987L4.12349 1.118H4.1213Z" fill="#2A2A2A"/>
</svg>
