<svg width="959" height="457" viewBox="0 0 959 457" fill="none" xmlns="http://www.w3.org/2000/svg">
<path d="M109 118.826V160.324C109 161.996 109.836 163.557 111.227 164.484L152.726 192.151C154.406 193.271 156.594 193.271 158.274 192.151L199.773 164.484C201.164 163.557 202 161.996 202 160.324V118.826C202 117.072 201.081 115.447 199.579 114.542L158.079 89.5531C156.492 88.5976 154.508 88.5976 152.921 89.5531L111.421 114.542C109.919 115.447 109 117.072 109 118.826Z" stroke="#2b2b2b44" stroke-opacity="0.6" stroke-width="2"/>
<path d="M1 118.826V160.324C1 161.996 1.83551 163.557 3.2265 164.484L44.7265 192.151C46.406 193.271 48.594 193.271 50.2735 192.151L91.7735 164.484C93.1645 163.557 94 161.996 94 160.324V118.826C94 117.072 93.0814 115.447 91.5792 114.542L50.0793 89.5531C48.4925 88.5976 46.5075 88.5976 44.9208 89.5531L3.42075 114.542C1.91857 115.447 1 117.072 1 118.826Z" stroke="#2b2b2b44" stroke-opacity="0.6" stroke-width="2"/>
<path d="M109 293.826V335.324C109 336.996 109.836 338.557 111.227 339.484L152.726 367.151C154.406 368.271 156.594 368.271 158.274 367.151L199.773 339.484C201.164 338.557 202 336.996 202 335.324V293.826C202 292.072 201.081 290.447 199.579 289.542L158.079 264.553C156.492 263.598 154.508 263.598 152.921 264.553L111.421 289.542C109.919 290.447 109 292.072 109 293.826Z" stroke="#2b2b2b44" stroke-opacity="0.6" stroke-width="2"/>
<path d="M1 293.826V335.324C1 336.996 1.83551 338.557 3.2265 339.484L44.7265 367.151C46.406 368.271 48.594 368.271 50.2735 367.151L91.7735 339.484C93.1645 338.557 94 336.996 94 335.324V293.826C94 292.072 93.0814 290.447 91.5792 289.542L50.0793 264.553C48.4925 263.598 46.5075 263.598 44.9208 264.553L3.42075 289.542C1.91857 290.447 1 292.072 1 293.826Z" stroke="#2b2b2b44" stroke-opacity="0.6" stroke-width="2"/>
<path d="M55 206.826V248.324C55 249.996 55.8355 251.557 57.2265 252.484L98.7265 280.151C100.406 281.271 102.594 281.271 104.274 280.151L145.773 252.484C147.164 251.557 148 249.996 148 248.324V206.826C148 205.072 147.081 203.447 145.579 202.542L104.079 177.553C102.492 176.598 100.508 176.598 98.9208 177.553L57.4208 202.542C55.9186 203.447 55 205.072 55 206.826Z" stroke="#2b2b2b44" stroke-opacity="0.6" stroke-width="2"/>
<path d="M55 381.826V423.324C55 424.996 55.8355 426.557 57.2265 427.484L98.7265 455.151C100.406 456.271 102.594 456.271 104.274 455.151L145.773 427.484C147.164 426.557 148 424.996 148 423.324V381.826C148 380.072 147.081 378.447 145.579 377.542L104.079 352.553C102.492 351.598 100.508 351.598 98.9208 352.553L57.4208 377.542C55.9186 378.447 55 380.072 55 381.826Z" stroke="#2b2b2b44" stroke-opacity="0.6" stroke-width="2"/>
<path d="M55 31.8257V73.3241C55 74.9958 55.8355 76.557 57.2265 77.4843L98.7265 105.151C100.406 106.271 102.594 106.271 104.274 105.151L145.773 77.4843C147.164 76.557 148 74.9958 148 73.3241V31.8257C148 30.0722 147.081 28.4469 145.579 27.5423L104.079 2.5531C102.492 1.59762 100.508 1.59762 98.9208 2.55309L57.4208 27.5423C55.9186 28.4469 55 30.0722 55 31.8257Z" stroke="#2b2b2b44" stroke-opacity="0.6" stroke-width="2"/>
<path d="M217 118.826V160.324C217 161.996 217.836 163.557 219.227 164.484L260.726 192.151C262.406 193.271 264.594 193.271 266.274 192.151L307.773 164.484C309.164 163.557 310 161.996 310 160.324V118.826C310 117.072 309.081 115.447 307.579 114.542L266.079 89.5531C264.492 88.5976 262.508 88.5976 260.921 89.5531L219.421 114.542C217.919 115.447 217 117.072 217 118.826Z" stroke="#2b2b2b44" stroke-opacity="0.6" stroke-width="2"/>
<path d="M217 293.826V335.324C217 336.996 217.836 338.557 219.227 339.484L260.726 367.151C262.406 368.271 264.594 368.271 266.274 367.151L307.773 339.484C309.164 338.557 310 336.996 310 335.324V293.826C310 292.072 309.081 290.447 307.579 289.542L266.079 264.553C264.492 263.598 262.508 263.598 260.921 264.553L219.421 289.542C217.919 290.447 217 292.072 217 293.826Z" stroke="#2b2b2b44" stroke-opacity="0.6" stroke-width="2"/>
<path d="M163 206.826V248.324C163 249.996 163.836 251.557 165.227 252.484L206.726 280.151C208.406 281.271 210.594 281.271 212.274 280.151L253.773 252.484C255.164 251.557 256 249.996 256 248.324V206.826C256 205.072 255.081 203.447 253.579 202.542L212.079 177.553C210.492 176.598 208.508 176.598 206.921 177.553L165.421 202.542C163.919 203.447 163 205.072 163 206.826Z" stroke="#2b2b2b44" stroke-opacity="0.6" stroke-width="2"/>
<path d="M163 381.826V423.324C163 424.996 163.836 426.557 165.227 427.484L206.726 455.151C208.406 456.271 210.594 456.271 212.274 455.151L253.773 427.484C255.164 426.557 256 424.996 256 423.324V381.826C256 380.072 255.081 378.447 253.579 377.542L212.079 352.553C210.492 351.598 208.508 351.598 206.921 352.553L165.421 377.542C163.919 378.447 163 380.072 163 381.826Z" stroke="#2b2b2b44" stroke-opacity="0.6" stroke-width="2"/>
<path d="M163 31.8257V73.3241C163 74.9958 163.836 76.557 165.227 77.4843L206.726 105.151C208.406 106.271 210.594 106.271 212.274 105.151L253.773 77.4843C255.164 76.557 256 74.9958 256 73.3241V31.8257C256 30.0722 255.081 28.4469 253.579 27.5423L212.079 2.5531C210.492 1.59762 208.508 1.59762 206.921 2.55309L165.421 27.5423C163.919 28.4469 163 30.0722 163 31.8257Z" stroke="#2b2b2b44" stroke-opacity="0.6" stroke-width="2"/>
<path d="M325 118.826V160.324C325 161.996 325.836 163.557 327.227 164.484L368.726 192.151C370.406 193.271 372.594 193.271 374.274 192.151L415.773 164.484C417.164 163.557 418 161.996 418 160.324V118.826C418 117.072 417.081 115.447 415.579 114.542L374.079 89.5531C372.492 88.5976 370.508 88.5976 368.921 89.5531L327.421 114.542C325.919 115.447 325 117.072 325 118.826Z" stroke="#2b2b2b44" stroke-opacity="0.6" stroke-width="2"/>
<path d="M325 293.826V335.324C325 336.996 325.836 338.557 327.227 339.484L368.726 367.151C370.406 368.271 372.594 368.271 374.274 367.151L415.773 339.484C417.164 338.557 418 336.996 418 335.324V293.826C418 292.072 417.081 290.447 415.579 289.542L374.079 264.553C372.492 263.598 370.508 263.598 368.921 264.553L327.421 289.542C325.919 290.447 325 292.072 325 293.826Z" stroke="#2b2b2b44" stroke-opacity="0.6" stroke-width="2"/>
<path d="M271 206.826V248.324C271 249.996 271.836 251.557 273.227 252.484L314.726 280.151C316.406 281.271 318.594 281.271 320.274 280.151L361.773 252.484C363.164 251.557 364 249.996 364 248.324V206.826C364 205.072 363.081 203.447 361.579 202.542L320.079 177.553C318.492 176.598 316.508 176.598 314.921 177.553L273.421 202.542C271.919 203.447 271 205.072 271 206.826Z" stroke="#2b2b2b44" stroke-opacity="0.6" stroke-width="2"/>
<path d="M271 381.826V423.324C271 424.996 271.836 426.557 273.227 427.484L314.726 455.151C316.406 456.271 318.594 456.271 320.274 455.151L361.773 427.484C363.164 426.557 364 424.996 364 423.324V381.826C364 380.072 363.081 378.447 361.579 377.542L320.079 352.553C318.492 351.598 316.508 351.598 314.921 352.553L273.421 377.542C271.919 378.447 271 380.072 271 381.826Z" stroke="#2b2b2b44" stroke-opacity="0.6" stroke-width="2"/>
<path d="M271 31.8257V73.3241C271 74.9958 271.836 76.557 273.227 77.4843L314.726 105.151C316.406 106.271 318.594 106.271 320.274 105.151L361.773 77.4843C363.164 76.557 364 74.9958 364 73.3241V31.8257C364 30.0722 363.081 28.4469 361.579 27.5423L320.079 2.5531C318.492 1.59762 316.508 1.59762 314.921 2.55309L273.421 27.5423C271.919 28.4469 271 30.0722 271 31.8257Z" stroke="#2b2b2b44" stroke-opacity="0.6" stroke-width="2"/>
<path d="M433 118.826V160.324C433 161.996 433.836 163.557 435.227 164.484L476.726 192.151C478.406 193.271 480.594 193.271 482.274 192.151L523.773 164.484C525.164 163.557 526 161.996 526 160.324V118.826C526 117.072 525.081 115.447 523.579 114.542L482.079 89.5531C480.492 88.5976 478.508 88.5976 476.921 89.5531L435.421 114.542C433.919 115.447 433 117.072 433 118.826Z" stroke="#2b2b2b44" stroke-opacity="0.6" stroke-width="2"/>
<path d="M433 293.826V335.324C433 336.996 433.836 338.557 435.227 339.484L476.726 367.151C478.406 368.271 480.594 368.271 482.274 367.151L523.773 339.484C525.164 338.557 526 336.996 526 335.324V293.826C526 292.072 525.081 290.447 523.579 289.542L482.079 264.553C480.492 263.598 478.508 263.598 476.921 264.553L435.421 289.542C433.919 290.447 433 292.072 433 293.826Z" stroke="#2b2b2b44" stroke-opacity="0.6" stroke-width="2"/>
<path d="M379 206.826V248.324C379 249.996 379.836 251.557 381.227 252.484L422.726 280.151C424.406 281.271 426.594 281.271 428.274 280.151L469.773 252.484C471.164 251.557 472 249.996 472 248.324V206.826C472 205.072 471.081 203.447 469.579 202.542L428.079 177.553C426.492 176.598 424.508 176.598 422.921 177.553L381.421 202.542C379.919 203.447 379 205.072 379 206.826Z" stroke="#2b2b2b44" stroke-opacity="0.6" stroke-width="2"/>
<path d="M379 381.826V423.324C379 424.996 379.836 426.557 381.227 427.484L422.726 455.151C424.406 456.271 426.594 456.271 428.274 455.151L469.773 427.484C471.164 426.557 472 424.996 472 423.324V381.826C472 380.072 471.081 378.447 469.579 377.542L428.079 352.553C426.492 351.598 424.508 351.598 422.921 352.553L381.421 377.542C379.919 378.447 379 380.072 379 381.826Z" stroke="#2b2b2b44" stroke-opacity="0.6" stroke-width="2"/>
<path d="M379 31.8257V73.3241C379 74.9958 379.836 76.557 381.227 77.4843L422.726 105.151C424.406 106.271 426.594 106.271 428.274 105.151L469.773 77.4843C471.164 76.557 472 74.9958 472 73.3241V31.8257C472 30.0722 471.081 28.4469 469.579 27.5423L428.079 2.5531C426.492 1.59762 424.508 1.59762 422.921 2.55309L381.421 27.5423C379.919 28.4469 379 30.0722 379 31.8257Z" stroke="#2b2b2b44" stroke-opacity="0.6" stroke-width="2"/>
<path d="M541 118.826V160.324C541 161.996 541.836 163.557 543.227 164.484L584.726 192.151C586.406 193.271 588.594 193.271 590.274 192.151L631.773 164.484C633.164 163.557 634 161.996 634 160.324V118.826C634 117.072 633.081 115.447 631.579 114.542L590.079 89.5531C588.492 88.5976 586.508 88.5976 584.921 89.5531L543.421 114.542C541.919 115.447 541 117.072 541 118.826Z" stroke="#2b2b2b44" stroke-opacity="0.6" stroke-width="2"/>
<path d="M541 293.826V335.324C541 336.996 541.836 338.557 543.227 339.484L584.726 367.151C586.406 368.271 588.594 368.271 590.274 367.151L631.773 339.484C633.164 338.557 634 336.996 634 335.324V293.826C634 292.072 633.081 290.447 631.579 289.542L590.079 264.553C588.492 263.598 586.508 263.598 584.921 264.553L543.421 289.542C541.919 290.447 541 292.072 541 293.826Z" stroke="#2b2b2b44" stroke-opacity="0.6" stroke-width="2"/>
<path d="M487 206.826V248.324C487 249.996 487.836 251.557 489.227 252.484L530.726 280.151C532.406 281.271 534.594 281.271 536.274 280.151L577.773 252.484C579.164 251.557 580 249.996 580 248.324V206.826C580 205.072 579.081 203.447 577.579 202.542L536.079 177.553C534.492 176.598 532.508 176.598 530.921 177.553L489.421 202.542C487.919 203.447 487 205.072 487 206.826Z" stroke="#2b2b2b44" stroke-opacity="0.6" stroke-width="2"/>
<path d="M487 381.826V423.324C487 424.996 487.836 426.557 489.227 427.484L530.726 455.151C532.406 456.271 534.594 456.271 536.274 455.151L577.773 427.484C579.164 426.557 580 424.996 580 423.324V381.826C580 380.072 579.081 378.447 577.579 377.542L536.079 352.553C534.492 351.598 532.508 351.598 530.921 352.553L489.421 377.542C487.919 378.447 487 380.072 487 381.826Z" stroke="#2b2b2b44" stroke-opacity="0.6" stroke-width="2"/>
<path d="M487 31.8257V73.3241C487 74.9958 487.836 76.557 489.227 77.4843L530.726 105.151C532.406 106.271 534.594 106.271 536.274 105.151L577.773 77.4843C579.164 76.557 580 74.9958 580 73.3241V31.8257C580 30.0722 579.081 28.4469 577.579 27.5423L536.079 2.5531C534.492 1.59762 532.508 1.59762 530.921 2.55309L489.421 27.5423C487.919 28.4469 487 30.0722 487 31.8257Z" stroke="#2b2b2b44" stroke-opacity="0.6" stroke-width="2"/>
<path d="M649 118.826V160.324C649 161.996 649.836 163.557 651.227 164.484L692.726 192.151C694.406 193.271 696.594 193.271 698.274 192.151L739.773 164.484C741.164 163.557 742 161.996 742 160.324V118.826C742 117.072 741.081 115.447 739.579 114.542L698.079 89.5531C696.492 88.5976 694.508 88.5976 692.921 89.5531L651.421 114.542C649.919 115.447 649 117.072 649 118.826Z" stroke="#2b2b2b44" stroke-opacity="0.6" stroke-width="2"/>
<path d="M649 293.826V335.324C649 336.996 649.836 338.557 651.227 339.484L692.726 367.151C694.406 368.271 696.594 368.271 698.274 367.151L739.773 339.484C741.164 338.557 742 336.996 742 335.324V293.826C742 292.072 741.081 290.447 739.579 289.542L698.079 264.553C696.492 263.598 694.508 263.598 692.921 264.553L651.421 289.542C649.919 290.447 649 292.072 649 293.826Z" stroke="#2b2b2b44" stroke-opacity="0.6" stroke-width="2"/>
<path d="M595 206.826V248.324C595 249.996 595.836 251.557 597.227 252.484L638.726 280.151C640.406 281.271 642.594 281.271 644.274 280.151L685.773 252.484C687.164 251.557 688 249.996 688 248.324V206.826C688 205.072 687.081 203.447 685.579 202.542L644.079 177.553C642.492 176.598 640.508 176.598 638.921 177.553L597.421 202.542C595.919 203.447 595 205.072 595 206.826Z" stroke="#2b2b2b44" stroke-opacity="0.6" stroke-width="2"/>
<path d="M595 381.826V423.324C595 424.996 595.836 426.557 597.227 427.484L638.726 455.151C640.406 456.271 642.594 456.271 644.274 455.151L685.773 427.484C687.164 426.557 688 424.996 688 423.324V381.826C688 380.072 687.081 378.447 685.579 377.542L644.079 352.553C642.492 351.598 640.508 351.598 638.921 352.553L597.421 377.542C595.919 378.447 595 380.072 595 381.826Z" stroke="#2b2b2b44" stroke-opacity="0.6" stroke-width="2"/>
<path d="M595 31.8257V73.3241C595 74.9958 595.836 76.557 597.227 77.4843L638.726 105.151C640.406 106.271 642.594 106.271 644.274 105.151L685.773 77.4843C687.164 76.557 688 74.9958 688 73.3241V31.8257C688 30.0722 687.081 28.4469 685.579 27.5423L644.079 2.5531C642.492 1.59762 640.508 1.59762 638.921 2.55309L597.421 27.5423C595.919 28.4469 595 30.0722 595 31.8257Z" stroke="#2b2b2b44" stroke-opacity="0.6" stroke-width="2"/>
<path d="M757 118.826V160.324C757 161.996 757.836 163.557 759.227 164.484L800.726 192.151C802.406 193.271 804.594 193.271 806.274 192.151L847.773 164.484C849.164 163.557 850 161.996 850 160.324V118.826C850 117.072 849.081 115.447 847.579 114.542L806.079 89.5531C804.492 88.5976 802.508 88.5976 800.921 89.5531L759.421 114.542C757.919 115.447 757 117.072 757 118.826Z" stroke="#2b2b2b44" stroke-opacity="0.6" stroke-width="2"/>
<path d="M757 293.826V335.324C757 336.996 757.836 338.557 759.227 339.484L800.726 367.151C802.406 368.271 804.594 368.271 806.274 367.151L847.773 339.484C849.164 338.557 850 336.996 850 335.324V293.826C850 292.072 849.081 290.447 847.579 289.542L806.079 264.553C804.492 263.598 802.508 263.598 800.921 264.553L759.421 289.542C757.919 290.447 757 292.072 757 293.826Z" stroke="#2b2b2b44" stroke-opacity="0.6" stroke-width="2"/>
<path d="M703 206.826V248.324C703 249.996 703.836 251.557 705.227 252.484L746.726 280.151C748.406 281.271 750.594 281.271 752.274 280.151L793.773 252.484C795.164 251.557 796 249.996 796 248.324V206.826C796 205.072 795.081 203.447 793.579 202.542L752.079 177.553C750.492 176.598 748.508 176.598 746.921 177.553L705.421 202.542C703.919 203.447 703 205.072 703 206.826Z" stroke="#2b2b2b44" stroke-opacity="0.6" stroke-width="2"/>
<path d="M703 381.826V423.324C703 424.996 703.836 426.557 705.227 427.484L746.726 455.151C748.406 456.271 750.594 456.271 752.274 455.151L793.773 427.484C795.164 426.557 796 424.996 796 423.324V381.826C796 380.072 795.081 378.447 793.579 377.542L752.079 352.553C750.492 351.598 748.508 351.598 746.921 352.553L705.421 377.542C703.919 378.447 703 380.072 703 381.826Z" stroke="#2b2b2b44" stroke-opacity="0.6" stroke-width="2"/>
<path d="M703 31.8257V73.3241C703 74.9958 703.836 76.557 705.227 77.4843L746.726 105.151C748.406 106.271 750.594 106.271 752.274 105.151L793.773 77.4843C795.164 76.557 796 74.9958 796 73.3241V31.8257C796 30.0722 795.081 28.4469 793.579 27.5423L752.079 2.5531C750.492 1.59762 748.508 1.59762 746.921 2.55309L705.421 27.5423C703.919 28.4469 703 30.0722 703 31.8257Z" stroke="#2b2b2b44" stroke-opacity="0.6" stroke-width="2"/>
<path d="M865 118.826V160.324C865 161.996 865.836 163.557 867.227 164.484L908.726 192.151C910.406 193.271 912.594 193.271 914.274 192.151L955.773 164.484C957.164 163.557 958 161.996 958 160.324V118.826C958 117.072 957.081 115.447 955.579 114.542L914.079 89.5531C912.492 88.5976 910.508 88.5976 908.921 89.5531L867.421 114.542C865.919 115.447 865 117.072 865 118.826Z" stroke="#2b2b2b44" stroke-opacity="0.6" stroke-width="2"/>
<path d="M865 293.826V335.324C865 336.996 865.836 338.557 867.227 339.484L908.726 367.151C910.406 368.271 912.594 368.271 914.274 367.151L955.773 339.484C957.164 338.557 958 336.996 958 335.324V293.826C958 292.072 957.081 290.447 955.579 289.542L914.079 264.553C912.492 263.598 910.508 263.598 908.921 264.553L867.421 289.542C865.919 290.447 865 292.072 865 293.826Z" stroke="#2b2b2b44" stroke-opacity="0.6" stroke-width="2"/>
<path d="M811 206.826V248.324C811 249.996 811.836 251.557 813.227 252.484L854.726 280.151C856.406 281.271 858.594 281.271 860.274 280.151L901.773 252.484C903.164 251.557 904 249.996 904 248.324V206.826C904 205.072 903.081 203.447 901.579 202.542L860.079 177.553C858.492 176.598 856.508 176.598 854.921 177.553L813.421 202.542C811.919 203.447 811 205.072 811 206.826Z" stroke="#2b2b2b44" stroke-opacity="0.6" stroke-width="2"/>
<path d="M811 381.826V423.324C811 424.996 811.836 426.557 813.227 427.484L854.726 455.151C856.406 456.271 858.594 456.271 860.274 455.151L901.773 427.484C903.164 426.557 904 424.996 904 423.324V381.826C904 380.072 903.081 378.447 901.579 377.542L860.079 352.553C858.492 351.598 856.508 351.598 854.921 352.553L813.421 377.542C811.919 378.447 811 380.072 811 381.826Z" stroke="#2b2b2b44" stroke-opacity="0.6" stroke-width="2"/>
<path d="M811 31.8257V73.3241C811 74.9958 811.836 76.557 813.227 77.4843L854.726 105.151C856.406 106.271 858.594 106.271 860.274 105.151L901.773 77.4843C903.164 76.557 904 74.9958 904 73.3241V31.8257C904 30.0722 903.081 28.4469 901.579 27.5423L860.079 2.5531C858.492 1.59762 856.508 1.59762 854.921 2.55309L813.421 27.5423C811.919 28.4469 811 30.0722 811 31.8257Z" stroke="#2b2b2b44" stroke-opacity="0.6" stroke-width="2"/>
</svg>
